<?xml version="1.0" encoding="UTF-8"?>
<svg xmlns="http://www.w3.org/2000/svg" width="1200" height="630" viewBox="0 0 1200 630" role="img" aria-label="192K retrieval is not closure">
  <defs>
    <pattern id="papergrain" width="32" height="32" patternUnits="userSpaceOnUse">
      <rect width="32" height="32" fill="#f3ead7"/>
      <path d="M0 8h32M0 23h32M7 0v32M24 0v32" stroke="#d8c9aa" stroke-width="0.6" opacity="0.22"/>
      <circle cx="6" cy="6" r="0.7" fill="#9b8d74" opacity="0.18"/>
      <circle cx="22" cy="18" r="0.6" fill="#9b8d74" opacity="0.14"/>
    </pattern>
    <style>
      .mono { font-family: ui-monospace, SFMono-Regular, Menlo, Consolas, 'Liberation Mono', monospace; }
      .tag { font-size: 13px; font-weight: 700; letter-spacing: 2.2px; fill: #a33a2b; text-transform: uppercase; }
      .title { font-size: 44px; font-weight: 800; letter-spacing: -1.7px; fill: #171717; }
      .sub { font-size: 18px; fill: #5f594f; }
      .small { font-size: 13px; fill: #5f594f; }
      .label { font-size: 16px; fill: #171717; }
      .num { font-size: 42px; font-weight: 800; fill: #171717; letter-spacing: -1px; }
      .micro { font-size: 11px; fill: #5f594f; letter-spacing: 1.1px; text-transform: uppercase; }
    </style>
  </defs>
  <rect width="1200" height="630" fill="url(#papergrain)"/>
  <rect x="28" y="28" width="1144" height="574" rx="28" fill="none" stroke="#24221e" stroke-width="1.5"/>
  <rect x="62" y="78" width="10" height="474" fill="#24221e"/>
  <text x="96" y="70" class="mono tag">turboquant-cuda-bench</text>
  <text x="96" y="128" class="mono title">192K retrieval is not closure</text>
  <text x="96" y="162" class="mono sub">Needles pass; adversarial evidence still wins without splice or rerank control</text>

    <rect x="92" y="210" width="1016" height="310" rx="24" fill="#fff7e8" stroke="#24221e"/>
    <text x="140" y="294" class="mono num" fill="#2f7d4f">5/5</text>
    <text x="140" y="330" class="mono label">needle @ 128K / 160K / 192K</text>
    <text x="140" y="365" class="mono small">vLLM Qwen2.5-7B + TurboQuant K8V4 + YaRN</text>
    <line x1="585" y1="245" x2="585" y2="478" stroke="#24221e"/>
    <text x="660" y="294" class="mono num" fill="#a33a2b">5/8</text>
    <text x="660" y="330" class="mono label">decoy replay at top_k=16</text>
    <text x="660" y="365" class="mono small">same miss set across llama.cpp and vLLM</text>
    <text x="140" y="455" class="mono small">Context length and retrieval ceiling are separate from evidence utilization.</text>
</svg>