<svg xmlns="http://www.w3.org/2000/svg" width="1080" height="640" viewBox="0 0 1080 640"><rect width="100%" height="100%" fill="#0d0f14"/><style>text{font-family:Inter,Segoe UI,Arial,sans-serif;fill:#e6edf3}.muted{fill:#9aa4b2}.grid{stroke:#222936}.axis{stroke:#384050}.title{font-size:24px;font-weight:700}.sub{font-size:14px}.label{font-size:13px}.small{font-size:12px}</style><text x="80" y="36" class="title">REFRACT q4 hybrid — Qwen3.6-35B-A3B / RTX 3090</text><text x="80" y="60" class="sub muted">Full n_predict=128. q4_0 remains KLD-close but loses trajectory/path preservation.</text><line x1="80" x2="1040" y1="525" y2="525" class="grid"/><text x="68" y="529" text-anchor="end" class="muted label">0</text><line x1="80" x2="1040" y1="436" y2="436" class="grid"/><text x="68" y="440" text-anchor="end" class="muted label">20</text><line x1="80" x2="1040" y1="347" y2="347" class="grid"/><text x="68" y="351" text-anchor="end" class="muted label">40</text><line x1="80" x2="1040" y1="258" y2="258" class="grid"/><text x="68" y="262" text-anchor="end" class="muted label">60</text><line x1="80" x2="1040" y1="169" y2="169" class="grid"/><text x="68" y="173" text-anchor="end" class="muted label">80</text><line x1="80" x2="1040" y1="80" y2="80" class="grid"/><text x="68" y="84" text-anchor="end" class="muted label">100</text><line x1="80" x2="80" y1="80" y2="525" class="axis"/><line x1="80" x2="1040" y1="525" y2="525" class="axis"/><rect x="129" y="80" width="42" height="445" rx="4" fill="#ff6b8a"/><text x="150" y="74" text-anchor="middle" class="small">100.0</text><rect x="179" y="80" width="42" height="445" rx="4" fill="#8fd3ff"/><text x="200" y="74" text-anchor="middle" class="small">100.0</text><rect x="229" y="80" width="42" height="445" rx="4" fill="#ffd166"/><text x="250" y="74" text-anchor="middle" class="small">100.0</text><text x="200" y="555" text-anchor="middle" class="label">q8/q8</text><rect x="369" y="232.61391251518836" width="42" height="292.38608748481164" rx="4" fill="#ff6b8a"/><text x="390" y="226.61391251518836" text-anchor="middle" class="small">65.7</text><rect x="419" y="85.28566291708847" width="42" height="439.7143370829115" rx="4" fill="#8fd3ff"/><text x="440" y="79.28566291708847" text-anchor="middle" class="small">98.8</text><rect x="469" y="173.77399242989503" width="42" height="351.22600757010497" rx="4" fill="#ffd166"/><text x="490" y="167.77399242989503" text-anchor="middle" class="small">78.9</text><text x="440" y="555" text-anchor="middle" class="label">q4/q4</text><rect x="609" y="265.036210018105" width="42" height="259.963789981895" rx="4" fill="#ff6b8a"/><text x="630" y="259.036210018105" text-anchor="middle" class="small">58.4</text><rect x="659" y="84.90910630130696" width="42" height="440.09089369869304" rx="4" fill="#8fd3ff"/><text x="680" y="78.90910630130696" text-anchor="middle" class="small">98.9</text><rect x="709" y="198.14640033282888" width="42" height="326.8535996671711" rx="4" fill="#ffd166"/><text x="730" y="192.14640033282888" text-anchor="middle" class="small">73.5</text><text x="680" y="555" text-anchor="middle" class="label">q8/q4</text><rect x="849" y="279.1270539906103" width="42" height="245.8729460093897" rx="4" fill="#ff6b8a"/><text x="870" y="273.1270539906103" text-anchor="middle" class="small">55.3</text><rect x="899" y="84.29519179649623" width="42" height="440.7048082035038" rx="4" fill="#8fd3ff"/><text x="920" y="78.29519179649623" text-anchor="middle" class="small">99.0</text><rect x="949" y="209.35508185749012" width="42" height="315.6449181425099" rx="4" fill="#ffd166"/><text x="970" y="203.35508185749012" text-anchor="middle" class="small">70.9</text><text x="920" y="555" text-anchor="middle" class="label">q4/q8</text><rect x="765" y="85" width="16" height="16" fill="#ff6b8a"/><text x="789" y="98" class="label">Path score</text><rect x="765" y="111" width="16" height="16" fill="#8fd3ff"/><text x="789" y="124" class="label">KLD score</text><rect x="765" y="137" width="16" height="16" fill="#ffd166"/><text x="789" y="150" class="label">Composite</text><text x="80" y="604" class="muted label">Reference is q8_0/q8_0. REFRACT is TheTom's method; sztlink contribution is independent CUDA validation.</text></svg>